<mxfile host="app.diagrams.net" modified="2020-10-22T10:01:47.262Z" agent="5.0 (Windows NT 10.0; Win64; x64) AppleWebKit/537.36 (KHTML, like Gecko) Chrome/86.0.4240.80 Safari/537.36 Edg/86.0.622.48" etag="c8Rb3eHeP1rAlEDQHRGh" version="13.8.1" type="github">
  <diagram id="TbpkexjcAVL80_8N_Dm1" name="Page-1">
    <mxGraphModel dx="1422" dy="762" grid="1" gridSize="10" guides="1" tooltips="1" connect="1" arrows="1" fold="1" page="1" pageScale="1" pageWidth="1169" pageHeight="1654" math="0" shadow="0">
      <root>
        <mxCell id="0" />
        <mxCell id="1" parent="0" />
        <mxCell id="pYFvETeUIYBAYWiSYTl8-10" style="edgeStyle=none;rounded=0;orthogonalLoop=1;jettySize=auto;html=1;entryX=0;entryY=1;entryDx=0;entryDy=0;" edge="1" parent="1" source="pYFvETeUIYBAYWiSYTl8-1" target="pYFvETeUIYBAYWiSYTl8-2">
          <mxGeometry relative="1" as="geometry" />
        </mxCell>
        <mxCell id="pYFvETeUIYBAYWiSYTl8-11" style="edgeStyle=none;rounded=0;orthogonalLoop=1;jettySize=auto;html=1;exitX=1;exitY=1;exitDx=0;exitDy=0;entryX=-0.033;entryY=0.36;entryDx=0;entryDy=0;entryPerimeter=0;" edge="1" parent="1" source="pYFvETeUIYBAYWiSYTl8-1" target="pYFvETeUIYBAYWiSYTl8-3">
          <mxGeometry relative="1" as="geometry" />
        </mxCell>
        <mxCell id="pYFvETeUIYBAYWiSYTl8-12" style="edgeStyle=none;rounded=0;orthogonalLoop=1;jettySize=auto;html=1;entryX=0;entryY=0.32;entryDx=0;entryDy=0;entryPerimeter=0;" edge="1" parent="1" source="pYFvETeUIYBAYWiSYTl8-1" target="pYFvETeUIYBAYWiSYTl8-4">
          <mxGeometry relative="1" as="geometry" />
        </mxCell>
        <mxCell id="pYFvETeUIYBAYWiSYTl8-1" value="server" style="ellipse;whiteSpace=wrap;html=1;" vertex="1" parent="1">
          <mxGeometry x="610" y="470" width="120" height="80" as="geometry" />
        </mxCell>
        <mxCell id="pYFvETeUIYBAYWiSYTl8-9" style="edgeStyle=none;rounded=0;orthogonalLoop=1;jettySize=auto;html=1;entryX=1;entryY=0;entryDx=0;entryDy=0;exitX=0;exitY=0.5;exitDx=0;exitDy=0;" edge="1" parent="1" source="pYFvETeUIYBAYWiSYTl8-2" target="pYFvETeUIYBAYWiSYTl8-1">
          <mxGeometry relative="1" as="geometry" />
        </mxCell>
        <mxCell id="pYFvETeUIYBAYWiSYTl8-2" value="client" style="ellipse;whiteSpace=wrap;html=1;" vertex="1" parent="1">
          <mxGeometry x="940" y="390" width="90" height="50" as="geometry" />
        </mxCell>
        <mxCell id="pYFvETeUIYBAYWiSYTl8-3" value="client" style="ellipse;whiteSpace=wrap;html=1;" vertex="1" parent="1">
          <mxGeometry x="940" y="540" width="90" height="50" as="geometry" />
        </mxCell>
        <mxCell id="pYFvETeUIYBAYWiSYTl8-4" value="client" style="ellipse;whiteSpace=wrap;html=1;" vertex="1" parent="1">
          <mxGeometry x="830" y="650" width="90" height="50" as="geometry" />
        </mxCell>
        <mxCell id="pYFvETeUIYBAYWiSYTl8-14" value="connenction.invoke(&quot;xxx&quot;,...params)" style="text;html=1;align=center;verticalAlign=middle;resizable=0;points=[];autosize=1;rotation=-15;" vertex="1" parent="1">
          <mxGeometry x="710" y="420" width="210" height="20" as="geometry" />
        </mxCell>
        <mxCell id="pYFvETeUIYBAYWiSYTl8-15" value="&lt;font style=&quot;font-size: 18px&quot;&gt;&lt;span class=&quot;hljs-keyword&quot; style=&quot;box-sizing: inherit ; outline-color: inherit ; color: rgb(86 , 156 , 214) ; font-style: normal ; font-weight: 400 ; letter-spacing: normal ; text-align: left ; text-indent: 0px ; text-transform: none ; word-spacing: 0px ; background-color: rgb(46 , 46 , 46)&quot;&gt;var&lt;/span&gt;&lt;span style=&quot;color: rgb(227 , 227 , 227) ; font-style: normal ; font-weight: 400 ; letter-spacing: normal ; text-align: left ; text-indent: 0px ; text-transform: none ; word-spacing: 0px ; background-color: rgb(46 , 46 , 46) ; display: inline ; float: none&quot;&gt; connection = &lt;/span&gt;&lt;span class=&quot;hljs-keyword&quot; style=&quot;box-sizing: inherit ; outline-color: inherit ; color: rgb(86 , 156 , 214) ; font-style: normal ; font-weight: 400 ; letter-spacing: normal ; text-align: left ; text-indent: 0px ; text-transform: none ; word-spacing: 0px ; background-color: rgb(46 , 46 , 46)&quot;&gt;new&lt;/span&gt;&lt;span style=&quot;color: rgb(227 , 227 , 227) ; font-style: normal ; font-weight: 400 ; letter-spacing: normal ; text-align: left ; text-indent: 0px ; text-transform: none ; word-spacing: 0px ; background-color: rgb(46 , 46 , 46) ; display: inline ; float: none&quot;&gt; signalR.HubConnectionBuilder()&lt;br&gt;&amp;nbsp; &amp;nbsp; &amp;nbsp; &amp;nbsp; &amp;nbsp; &amp;nbsp; &amp;nbsp; &amp;nbsp; &amp;nbsp; &amp;nbsp; &amp;nbsp; &amp;nbsp; &amp;nbsp; &amp;nbsp;.withUrl(&lt;/span&gt;&lt;span class=&quot;hljs-string&quot; style=&quot;box-sizing: inherit ; outline-color: inherit ; color: rgb(206 , 145 , 120) ; font-style: normal ; font-weight: 400 ; letter-spacing: normal ; text-align: left ; text-indent: 0px ; text-transform: none ; word-spacing: 0px ; background-color: rgb(46 , 46 , 46)&quot;&gt;&quot;/zzz&quot;&lt;/span&gt;&lt;span style=&quot;color: rgb(227 , 227 , 227) ; font-style: normal ; font-weight: 400 ; letter-spacing: normal ; text-align: left ; text-indent: 0px ; text-transform: none ; word-spacing: 0px ; background-color: rgb(46 , 46 , 46) ; display: inline ; float: none&quot;&gt;)&lt;br&gt;&lt;pre style=&quot;color: rgb(0 , 0 , 0) ; background-color: rgb(248 , 249 , 250) ; margin-top: 0px ; margin-bottom: 0px ; padding: 0px ; overflow-wrap: break-word&quot;&gt;&lt;span style=&quot;margin: 0px ; padding: 0px ; line-height: 1.5&quot;&gt;               .withAutomaticReconnect([&lt;/span&gt;1000, 4000, 10000, 10000&lt;span style=&quot;margin: 0px ; padding: 0px ; line-height: 1.5&quot;&gt;]) //断开重连毫秒数&lt;/span&gt;&lt;/pre&gt;&amp;nbsp; &amp;nbsp; &amp;nbsp; &amp;nbsp; &amp;nbsp; &amp;nbsp; &amp;nbsp; &amp;nbsp; &amp;nbsp; &amp;nbsp; &amp;nbsp; &amp;nbsp; &amp;nbsp; &amp;nbsp;.build();&lt;/span&gt;&lt;/font&gt;" style="text;whiteSpace=wrap;html=1;" vertex="1" parent="1">
          <mxGeometry x="1100" y="350" width="760" height="100" as="geometry" />
        </mxCell>
        <mxCell id="pYFvETeUIYBAYWiSYTl8-18" value="connection.on(&quot;yyy&quot;,(...params)=&amp;gt;{})" style="text;html=1;align=center;verticalAlign=middle;resizable=0;points=[];autosize=1;rotation=5;" vertex="1" parent="1">
          <mxGeometry x="730" y="520" width="210" height="20" as="geometry" />
        </mxCell>
        <mxCell id="pYFvETeUIYBAYWiSYTl8-19" value="&lt;font&gt;&lt;span style=&quot;font-size: 18px&quot;&gt;说明：xxx -- client执行的server方法，可以在后台代码中由Attribute控制或者直接使用接口名&lt;/span&gt;&lt;br&gt;&lt;br&gt;&lt;div style=&quot;text-align: left&quot;&gt;&lt;span style=&quot;font-size: 18px&quot;&gt;&amp;nbsp; &amp;nbsp; &amp;nbsp; &amp;nbsp; &amp;nbsp; &amp;nbsp;yyy -- client“订阅”的事件名，在server中使用SendAsync(&quot;yyy&quot;,...params)标记&lt;/span&gt;&lt;/div&gt;&lt;div style=&quot;text-align: left&quot;&gt;&lt;span style=&quot;font-size: 18px&quot;&gt;&amp;nbsp; &amp;nbsp; &amp;nbsp;&lt;/span&gt;&lt;/div&gt;&lt;div style=&quot;text-align: left&quot;&gt;&lt;span style=&quot;font-size: 18px&quot;&gt;&amp;nbsp; &amp;nbsp; &amp;nbsp; &amp;nbsp; &amp;nbsp; &amp;nbsp;zzz -- 集线器中心映射的url&lt;/span&gt;&lt;/div&gt;&lt;/font&gt;" style="text;html=1;align=center;verticalAlign=middle;resizable=0;points=[];autosize=1;" vertex="1" parent="1">
          <mxGeometry x="1090" y="540" width="750" height="80" as="geometry" />
        </mxCell>
        <mxCell id="pYFvETeUIYBAYWiSYTl8-20" value="&lt;font style=&quot;font-size: 18px&quot;&gt;前端库下载：yarn add&amp;nbsp;&lt;/font&gt;&lt;span style=&quot;color: rgb(227 , 227 , 227) ; font-family: , &amp;#34;consolas&amp;#34; , &amp;#34;liberation mono&amp;#34; , &amp;#34;menlo&amp;#34; , &amp;#34;courier&amp;#34; , monospace ; font-size: 14px ; background-color: rgb(46 , 46 , 46)&quot;&gt;@microsoft/signalr@latest&lt;/span&gt;" style="text;html=1;align=left;verticalAlign=middle;resizable=0;points=[];autosize=1;" vertex="1" parent="1">
          <mxGeometry x="1100" y="690" width="360" height="20" as="geometry" />
        </mxCell>
        <mxCell id="pYFvETeUIYBAYWiSYTl8-21" value="&lt;font style=&quot;font-size: 18px&quot;&gt;后台实现：&lt;/font&gt;" style="text;html=1;align=center;verticalAlign=middle;resizable=0;points=[];autosize=1;" vertex="1" parent="1">
          <mxGeometry x="610" y="807" width="110" height="20" as="geometry" />
        </mxCell>
        <mxCell id="pYFvETeUIYBAYWiSYTl8-22" value="&lt;font style=&quot;font-size: 18px&quot;&gt;基本使用&lt;/font&gt;" style="shape=hexagon;perimeter=hexagonPerimeter2;whiteSpace=wrap;html=1;fixedSize=1;" vertex="1" parent="1">
          <mxGeometry x="730" y="850" width="120" height="80" as="geometry" />
        </mxCell>
        <mxCell id="pYFvETeUIYBAYWiSYTl8-24" value="&amp;nbsp; &amp;nbsp; &amp;nbsp; &amp;nbsp; &amp;nbsp; &amp;nbsp; &amp;nbsp;" style="shape=step;perimeter=stepPerimeter;whiteSpace=wrap;html=1;fixedSize=1;align=left;" vertex="1" parent="1">
          <mxGeometry x="910" y="850" width="220" height="80" as="geometry" />
        </mxCell>
        <mxCell id="pYFvETeUIYBAYWiSYTl8-26" value="创建signalr中心，继承Hub的类&lt;br&gt;&lt;br&gt;创建异步方法，实现与前端通信" style="text;html=1;align=center;verticalAlign=middle;resizable=0;points=[];autosize=1;" vertex="1" parent="1">
          <mxGeometry x="930" y="865" width="180" height="50" as="geometry" />
        </mxCell>
        <mxCell id="pYFvETeUIYBAYWiSYTl8-27" value="&lt;br&gt;&amp;nbsp; &amp;nbsp; &amp;nbsp; &amp;nbsp;&amp;nbsp;&lt;br&gt;&amp;nbsp; &amp;nbsp; &amp;nbsp; &amp;nbsp;client可以进行编组，实现群聊室" style="shape=step;perimeter=stepPerimeter;whiteSpace=wrap;html=1;fixedSize=1;align=left;" vertex="1" parent="1">
          <mxGeometry x="1180" y="850" width="230" height="80" as="geometry" />
        </mxCell>
        <mxCell id="pYFvETeUIYBAYWiSYTl8-29" value="&lt;span style=&quot;color: rgb(227 , 227 , 227) ; font-family: , &amp;#34;consolas&amp;#34; , &amp;#34;liberation mono&amp;#34; , &amp;#34;menlo&amp;#34; , &amp;#34;courier&amp;#34; , monospace ; font-size: 14px ; text-align: left ; background-color: rgb(46 , 46 , 46)&quot;&gt; &lt;/span&gt;&lt;span class=&quot;hljs-keyword&quot; style=&quot;box-sizing: inherit ; outline-color: inherit ; color: rgb(86 , 156 , 214) ; font-family: , &amp;#34;consolas&amp;#34; , &amp;#34;liberation mono&amp;#34; , &amp;#34;menlo&amp;#34; , &amp;#34;courier&amp;#34; , monospace ; font-size: 14px ; text-align: left ; background-color: rgb(46 , 46 , 46)&quot;&gt;await&lt;/span&gt;&lt;span style=&quot;color: rgb(227 , 227 , 227) ; font-family: , &amp;#34;consolas&amp;#34; , &amp;#34;liberation mono&amp;#34; , &amp;#34;menlo&amp;#34; , &amp;#34;courier&amp;#34; , monospace ; font-size: 14px ; text-align: left ; background-color: rgb(46 , 46 , 46)&quot;&gt; Clients.All.SendAsync&lt;/span&gt;" style="text;html=1;align=center;verticalAlign=middle;resizable=0;points=[];autosize=1;" vertex="1" parent="1">
          <mxGeometry x="1200" y="865" width="190" height="20" as="geometry" />
        </mxCell>
        <mxCell id="pYFvETeUIYBAYWiSYTl8-30" value="" style="shape=step;perimeter=stepPerimeter;whiteSpace=wrap;html=1;fixedSize=1;align=left;" vertex="1" parent="1">
          <mxGeometry x="1460" y="850" width="320" height="80" as="geometry" />
        </mxCell>
        <mxCell id="pYFvETeUIYBAYWiSYTl8-31" value="&lt;div style=&quot;text-align: left&quot;&gt;&lt;span style=&quot;background-color: rgb(255 , 255 , 255)&quot;&gt;注册服务 映射URL&lt;/span&gt;&lt;/div&gt;&lt;div style=&quot;text-align: left&quot;&gt;&lt;span style=&quot;background-color: rgb(255 , 255 , 255)&quot;&gt;&lt;br&gt;&lt;/span&gt;&lt;/div&gt;&lt;div style=&quot;text-align: left&quot;&gt;&lt;span style=&quot;font-size: 14px ; background-color: rgb(0 , 0 , 0)&quot;&gt;&lt;font color=&quot;#ffffff&quot;&gt;services.AddSignalR();&lt;/font&gt;&lt;/span&gt;&lt;/div&gt;&lt;font color=&quot;#ffffff&quot; style=&quot;background-color: rgb(0 , 0 , 0)&quot;&gt;&lt;span style=&quot;font-size: 14px ; text-align: left&quot;&gt;endpoints.MapHub&amp;lt;ChatHub&amp;gt;(&lt;/span&gt;&lt;span class=&quot;hljs-string&quot; style=&quot;box-sizing: inherit ; outline-color: inherit ; font-size: 14px ; text-align: left&quot;&gt;&quot;/chathub&quot;&lt;/span&gt;&lt;span style=&quot;font-size: 14px ; text-align: left&quot;&gt;);&lt;/span&gt;&lt;/font&gt;" style="text;html=1;align=center;verticalAlign=middle;resizable=0;points=[];autosize=1;" vertex="1" parent="1">
          <mxGeometry x="1480" y="860" width="280" height="60" as="geometry" />
        </mxCell>
        <mxCell id="pYFvETeUIYBAYWiSYTl8-32" value="&lt;div style=&quot;color: rgb(255 , 255 , 255) ; background-color: rgb(0 , 0 , 0) ; font-family: &amp;#34;consolas&amp;#34; , &amp;#34;courier new&amp;#34; , monospace ; font-size: 18px ; line-height: 19px&quot;&gt;&lt;span style=&quot;color: #569cd6&quot;&gt;this&lt;/span&gt;.&lt;span style=&quot;color: #9cdcfe&quot;&gt;connection&lt;/span&gt;.&lt;span style=&quot;color: #dcdcaa&quot;&gt;start&lt;/span&gt;().&lt;span style=&quot;color: #dcdcaa&quot;&gt;catch&lt;/span&gt;((&lt;span style=&quot;color: #9cdcfe&quot;&gt;err&lt;/span&gt;&lt;span style=&quot;color: #d4d4d4&quot;&gt;:&lt;/span&gt;&lt;span style=&quot;color: #4ec9b0&quot;&gt;any&lt;/span&gt;)&amp;nbsp;&lt;span style=&quot;color: #569cd6&quot;&gt;=&amp;gt;&lt;/span&gt;&amp;nbsp;&lt;span style=&quot;color: #9cdcfe&quot;&gt;console&lt;/span&gt;.&lt;span style=&quot;color: #dcdcaa&quot;&gt;log&lt;/span&gt;(&lt;span style=&quot;color: #9cdcfe&quot;&gt;err&lt;/span&gt;));&lt;/div&gt;" style="text;html=1;align=center;verticalAlign=middle;resizable=0;points=[];autosize=1;" vertex="1" parent="1">
          <mxGeometry x="1090" y="470" width="620" height="20" as="geometry" />
        </mxCell>
        <mxCell id="pYFvETeUIYBAYWiSYTl8-33" value="&lt;pre style=&quot;margin-top: 0px ; margin-bottom: 0px ; padding: 0px ; overflow-wrap: break-word ; text-align: left ; font-size: 18px&quot;&gt;&lt;br&gt;&lt;/pre&gt;" style="text;html=1;align=center;verticalAlign=middle;resizable=0;points=[];autosize=1;" vertex="1" parent="1">
          <mxGeometry x="1380" y="395" width="20" height="20" as="geometry" />
        </mxCell>
        <mxCell id="pYFvETeUIYBAYWiSYTl8-34" value="&lt;font style=&quot;font-size: 18px&quot;&gt;&amp;nbsp;Hub之外调用&lt;/font&gt;" style="shape=hexagon;perimeter=hexagonPerimeter2;whiteSpace=wrap;html=1;fixedSize=1;align=left;" vertex="1" parent="1">
          <mxGeometry x="730" y="1030" width="120" height="80" as="geometry" />
        </mxCell>
        <mxCell id="pYFvETeUIYBAYWiSYTl8-35" value="&lt;font style=&quot;font-size: 13px&quot;&gt;&amp;nbsp; &amp;nbsp; &amp;nbsp; &amp;nbsp; &amp;nbsp;在controller中注入&amp;nbsp; &amp;nbsp; &amp;nbsp; &amp;nbsp; &amp;nbsp; &amp;nbsp; &amp;nbsp; &amp;nbsp; &amp;nbsp; &amp;nbsp; &amp;nbsp; &amp;nbsp; &amp;nbsp; &amp;nbsp; &amp;nbsp;IHubContext&amp;lt;xxxHub&amp;gt;&lt;/font&gt;" style="shape=step;perimeter=stepPerimeter;whiteSpace=wrap;html=1;fixedSize=1;align=left;" vertex="1" parent="1">
          <mxGeometry x="910" y="1030" width="210" height="80" as="geometry" />
        </mxCell>
      </root>
    </mxGraphModel>
  </diagram>
</mxfile>
